Coordinates
version=1
nRows=10
nColumns=46
inDegrees=yes

Units are S.I. units (second, meters, Newtons, ...)
Angles are in degrees.

endheader
time	pelvis_tilt	pelvis_list	pelvis_rotation	pelvis_tx	pelvis_ty	pelvis_tz	bb_angle	bb_tx	bb_ty	bb_tz	hip_flexion_r	hip_adduction_r	hip_rotation_r	knee_angle_r	knee_angle_r_beta	ankle_angle_r	subtalar_angle_r	mtp_angle_r	crank_angle_r	hip_flexion_l	hip_adduction_l	hip_rotation_l	knee_angle_l	knee_angle_l_beta	ankle_angle_l	subtalar_angle_l	mtp_angle_l	crank_angle_l	lumbar_extension	lumbar_bending	lumbar_rotation	arm_flex_r	arm_add_r	arm_rot_r	elbow_flex_r	pro_sup_r	wrist_flex_r	wrist_dev_r	arm_flex_l	arm_add_l	arm_rot_l	elbow_flex_l	pro_sup_l	wrist_flex_l	wrist_dev_l
      5.00000000	    -12.90170494	      2.77924291	      5.89008562	      0.11361572	      1.13178549	     -0.29235789	      0.00000000	      0.50000000	      0.00000000	      0.25000000	     48.59392151	    -12.87693248	     -3.72416286	     66.13788021	      1.15432377	     -7.38046471	     -7.27080281	      0.00000000	      0.00000000	     81.85529591	     -0.66480955	      0.61163142	     90.01702753	      1.57109351	     17.51366548	      0.71452819	      0.00000000	      0.00000000	    -63.94958917	     -0.11455744	     -7.74775758	     79.19330535	    -18.71984086	     24.47060972	     72.70269196	     46.64966567	      0.00000000	      0.00000000	     86.17247415	    -28.91302564	     40.39647430	     72.11042869	     50.89094725	      0.00000000	      0.00000000
      5.00500000	    -12.54880513	      2.59385814	      5.95424932	      0.11417041	      1.13089054	     -0.29284180	      0.00000000	      0.50000000	      0.00000000	      0.25000000	     49.44069806	    -12.78183954	     -3.25474707	     68.89105804	      1.20237579	     -7.50115280	     -7.57317659	      0.00000000	      0.00000000	     79.89934363	     -0.40180148	      0.67120324	     87.48815213	      1.52695631	     18.93441217	      0.27817301	      0.00000000	      0.00000000	    -64.10321716	      0.12031494	     -7.45718962	     78.77321470	    -18.92289928	     24.38823316	     73.07710260	     46.71657118	      0.00000000	      0.00000000	     85.88797979	    -28.87565748	     40.33553934	     72.18310665	     50.88387608	      0.00000000	      0.00000000
      5.01000000	    -12.24573862	      2.10422630	      5.90047930	      0.11487900	      1.12948747	     -0.29337913	      0.00000000	      0.50000000	      0.00000000	      0.25000000	     50.28209631	    -12.37888615	     -2.99028981	     71.55947819	      1.24894851	     -7.44907459	     -7.86889268	      0.00000000	      0.00000000	     78.16701156	     -0.28609333	      1.10492301	     85.13951289	      1.48596482	     20.08154302	     -0.22945239	      0.00000000	      0.00000000	    -64.07219832	      0.48040357	     -6.91086445	     78.44991618	    -18.94283204	     24.44365291	     73.09591449	     46.73067839	      0.00000000	      0.00000000	     85.45489366	    -28.99522703	     40.36883412	     72.21043127	     50.89506550	      0.00000000	      0.00000000
      5.01500000	    -11.87720751	      1.85639714	      5.89460187	      0.11565377	      1.12808315	     -0.29406118	      0.00000000	      0.50000000	      0.00000000	      0.25000000	     51.03386752	    -12.21543686	     -2.61142089	     74.20541625	      1.29512884	     -7.13879547	     -8.05103389	      0.00000000	      0.00000000	     76.31394064	     -0.11425193	      1.26712083	     82.73633015	      1.44402137	     20.91874618	     -0.69900313	      0.00000000	      0.00000000	    -64.11322506	      0.73329874	     -6.60635955	     78.06226272	    -19.02953161	     24.53910246	     73.14229547	     46.75470451	      0.00000000	      0.00000000	     84.96936982	    -29.05293883	     40.34731435	     72.28934709	     50.90952307	      0.00000000	      0.00000000
      5.02000000	    -11.34359571	      1.96065538	      5.97706856	      0.11646215	      1.12711229	     -0.29480656	      0.00000000	      0.50000000	      0.00000000	      0.25000000	     51.60365957	    -12.46335137	     -2.11579200	     76.83267727	      1.34098319	     -6.53824474	     -7.68223749	      0.00000000	      0.00000000	     74.23716085	      0.23812362	      1.14662254	     80.27833564	      1.40112127	     21.19340807	     -1.21353772	      0.00000000	      0.00000000	    -64.40127569	      0.87421054	     -6.71432495	     77.64144946	    -19.14250131	     24.76722477	     73.40710790	     46.83203226	      0.00000000	      0.00000000	     84.55319202	    -29.11588570	     39.96543709	     72.55520176	     50.91270067	      0.00000000	      0.00000000
      5.02500000	    -10.84914169	      1.67834575	      5.94752361	      0.11737533	      1.12572101	     -0.29518547	      0.00000000	      0.50000000	      0.00000000	      0.25000000	     52.11244737	    -12.27418820	     -1.91002859	     79.34260303	      1.38478966	     -5.72041253	     -7.60664754	      0.00000000	      0.00000000	     72.42852672	      0.18544054	      1.32032714	     78.13636525	      1.36373684	     21.51123291	     -1.31410054	      0.00000000	      0.00000000	    -64.56710517	      1.14635253	     -6.45702475	     77.33255261	    -19.09555324	     24.95100606	     73.52708105	     46.87752818	      0.00000000	      0.00000000	     84.06357396	    -29.27160153	     39.72527587	     72.69484304	     50.91523931	      0.00000000	      0.00000000
      5.03000000	    -10.53891149	      1.09958121	      5.81578843	      0.11807690	      1.12395017	     -0.29543026	      0.00000000	      0.50000000	      0.00000000	      0.25000000	     52.80945089	    -11.78605004	     -1.92890580	     81.71346779	      1.42616906	     -5.23838262	     -7.82382534	      0.00000000	      0.00000000	     70.96261745	     -0.10078257	      1.84211775	     76.15501111	      1.32915569	     21.50455249	     -1.24291311	      0.00000000	      0.00000000	    -64.54970517	      1.46964182	     -5.89327785	     77.09809263	    -18.98667528	     25.06175395	     73.51498098	     46.88937817	      0.00000000	      0.00000000	     83.83001532	    -29.45780413	     39.68149678	     72.71259888	     50.91760130	      0.00000000	      0.00000000
      5.03500000	    -10.07802294	      1.00359424	      5.76843581	      0.11888732	      1.12268320	     -0.29584120	      0.00000000	      0.50000000	      0.00000000	      0.25000000	     53.31728963	    -11.76009369	     -1.70250008	     84.11537469	      1.46809024	     -3.90945873	     -7.94639113	      0.00000000	      0.00000000	     69.16792364	     -0.16916414	      1.86458617	     74.06084543	      1.29260560	     21.49450235	     -1.00498226	      0.00000000	      0.00000000	    -64.67427721	      1.62172601	     -5.75270266	     76.87710806	    -19.10246286	     25.17002898	     73.54351289	     46.90995288	      0.00000000	      0.00000000	     83.22111817	    -29.58650232	     39.62797400	     72.84762729	     50.94234315	      0.00000000	      0.00000000
      5.04000000	     -9.61500346	      1.01640671	      5.78406391	      0.11959152	      1.12173224	     -0.29635424	      0.00000000	      0.50000000	      0.00000000	      0.25000000	     53.83435188	    -11.95826961	     -1.48013982	     86.43587068	      1.50859054	     -2.79557296	     -7.44016296	      0.00000000	      0.00000000	     67.31630373	     -0.10818384	      1.88570823	     71.90808735	      1.25503288	     21.19753041	     -0.74123108	      0.00000000	      0.00000000	    -64.97881656	      1.70046009	     -5.81691351	     76.67378350	    -19.16997891	     25.33647470	     73.65770556	     46.95159186	      0.00000000	      0.00000000	     82.93616334	    -29.70084753	     39.31221566	     73.09794767	     50.95326555	      0.00000000	      0.00000000
      5.04500000	     -9.28959739	      0.83040831	      5.74184081	      0.12014788	      1.12087883	     -0.29668804	      0.00000000	      0.50000000	      0.00000000	      0.25000000	     54.45194826	    -11.93033433	     -1.42820169	     88.63267222	      1.54693196	     -1.65059616	     -7.30123180	      0.00000000	      0.00000000	     65.63555881	     -0.23751902	      2.04587427	     69.74761305	      1.21732549	     20.69662908	     -0.45945190	      0.00000000	      0.00000000	    -65.14173803	      1.86196696	     -5.73035874	     76.59472915	    -19.13456241	     25.47417789	     73.77957410	     46.99086700	      0.00000000	      0.00000000	     82.71307440	    -29.87239541	     38.99232973	     73.29579882	     50.95521279	      0.00000000	      0.00000000
